<svg width="0" height="0" class="hidden">
    <symbol xmlns="http://www.w3.org/2000/svg" viewBox="0 0 448 512" id="add">
        <path fill="currentColor"
            d="M256 64c0-17.7-14.3-32-32-32s-32 14.3-32 32v160H32c-17.7 0-32 14.3-32 32s14.3 32 32 32h160v160c0 17.7 14.3 32 32 32s32-14.3 32-32V288h160c17.7 0 32-14.3 32-32s-14.3-32-32-32H256z">
        </path>
    </symbol>
    <symbol xmlns="http://www.w3.org/2000/svg" viewBox="0 0 15 15" id="delete">
        <path fill="#000000"
            d="M3.64 2.27L7.5 6.13l3.84-3.84A.92.92 0 0 1 12 2a1 1 0 0 1 1 1a.9.9 0 0 1-.27.66L8.84 7.5l3.89 3.89A.9.9 0 0 1 13 12a1 1 0 0 1-1 1a.92.92 0 0 1-.69-.27L7.5 8.87l-3.85 3.85A.92.92 0 0 1 3 13a1 1 0 0 1-1-1a.9.9 0 0 1 .27-.66L6.16 7.5L2.27 3.61A.9.9 0 0 1 2 3a1 1 0 0 1 1-1c.24.003.47.1.64.27" />
    </symbol>
    <symbol xmlns="http://www.w3.org/2000/svg" viewBox="0 0 27 24" id="export">
        <path fill="#000000"
            d="m26.444 16.617l.03-.039a1 1 0 0 0 .062-.094l.026-.044l.024-.05q.012-.024.021-.047l.018-.05l.018-.051l.013-.05l.013-.054l.009-.057l.007-.048c0-.035.005-.071.005-.106q0-.053-.005-.106q-.001-.025-.007-.048c-.006-.023-.005-.039-.009-.057l-.013-.054l-.013-.049l-.018-.052q-.008-.026-.018-.049l-.021-.047l-.024-.05l-.026-.044l-.029-.048l-.034-.046c-.012-.015-.019-.027-.03-.039q-.033-.039-.069-.076l-2.733-2.732a1.091 1.091 0 1 0-1.542 1.541l.001.001l.865.865h-3.328V9.092a1.08 1.08 0 0 0-.249-.692l.001.002l-.004-.006a1 1 0 0 0-.063-.069l-.009-.009l-.028-.029L11.319.323A1 1 0 0 0 11.25.26l-.023-.018l-.053-.04l-.027-.019q-.029-.019-.058-.035l-.024-.014q-.039-.021-.081-.039L10.95.081L10.895.06l-.039-.012l-.063-.016l-.028-.007q-.046-.008-.093-.014H1.093A1.09 1.09 0 0 0 .002 1.092V22.91c0 .603.489 1.091 1.091 1.091h17.454c.603 0 1.091-.489 1.091-1.091v-5.891h3.329l-.865.865a1.091 1.091 0 1 0 1.541 1.542l.001-.001l2.728-2.722q.039-.044.073-.086zM11.636 3.724l4.275 4.275h-4.275zm5.818 18.093H2.182V2.181h7.273V9.09c0 .603.489 1.091 1.091 1.091h6.909v4.655h-4.759a1.091 1.091 0 0 0 0 2.182h.032h-.002h4.727z" />
    </symbol>
    <symbol xmlns="http://www.w3.org/2000/svg" viewBox="0 0 26 26" id="deleteAll">
        <path fill="#000000"
            d="M11.5-.031c-1.958 0-3.531 1.627-3.531 3.594V4H4c-.551 0-1 .449-1 1v1H2v2h2v15c0 1.645 1.355 3 3 3h12c1.645 0 3-1.355 3-3V8h2V6h-1V5c0-.551-.449-1-1-1h-3.969v-.438c0-1.966-1.573-3.593-3.531-3.593zm0 2.062h3c.804 0 1.469.656 1.469 1.531V4H10.03v-.438c0-.875.665-1.53 1.469-1.53zM6 8h5.125c.124.013.247.031.375.031h3c.128 0 .25-.018.375-.031H20v15c0 .563-.437 1-1 1H7c-.563 0-1-.437-1-1zm2 2v12h2V10zm4 0v12h2V10zm4 0v12h2V10z" />
    </symbol>
    <symbol xmlns="http://www.w3.org/2000/svg" viewBox="0 0 24 24" id="upload">
        <path fill="#000000"
            d="M11 16V7.85l-2.6 2.6L7 9l5-5l5 5l-1.4 1.45l-2.6-2.6V16zm-5 4q-.825 0-1.412-.587T4 18v-3h2v3h12v-3h2v3q0 .825-.587 1.413T18 20z" />
    </symbol>
    <symbol xmlns="http://www.w3.org/2000/svg" viewBox="0 0 24 24" id="search">
        <g fill="none" stroke="#000000" stroke-width="2">
            <circle cx="10.5" cy="10.5" r="5.5" />
            <path stroke-linecap="round" d="M15.414 15L19 18.586" />
        </g>
    </symbol>
    <symbol xmlns="http://www.w3.org/2000/svg" viewBox="0 0 11 24" id="info">
        <path fill="#000000"
            d="M8.436.006a2.24 2.24 0 0 1 2.408 2.354v-.006a3.156 3.156 0 0 1-3.151 3.01l-.065-.001h.003a2.15 2.15 0 0 1-2.367-2.398l-.001.01A3.087 3.087 0 0 1 8.44.004h-.005zM3.489 24c-1.268 0-2.199-.783-1.311-4.226l1.456-6.108c.254-.978.295-1.369 0-1.369a9.6 9.6 0 0 0-3.035 1.359l.033-.021l-.633-1.057c3.086-2.622 6.638-4.159 8.158-4.159c1.268 0 1.48 1.526.845 3.874l-1.666 6.421c-.296 1.135-.168 1.526.126 1.526a6.55 6.55 0 0 0 2.863-1.456l-.008.007l.72.979c-3.004 3.052-6.281 4.232-7.549 4.232z" />
    </symbol>
</svg>