<svg width="0" height="0" class="hidden">
    <symbol xmlns="http://www.w3.org/2000/svg" viewBox="0 0 448 512" id="add">
        <path fill="currentColor"
            d="M256 64c0-17.7-14.3-32-32-32s-32 14.3-32 32v160H32c-17.7 0-32 14.3-32 32s14.3 32 32 32h160v160c0 17.7 14.3 32 32 32s32-14.3 32-32V288h160c17.7 0 32-14.3 32-32s-14.3-32-32-32H256z">
        </path>
    </symbol>
    <symbol xmlns="http://www.w3.org/2000/svg" viewBox="0 0 20 20" id="delete">
        <path fill="currentColor"
            d="M12 4h3c.6 0 1 .4 1 1v1H3V5c0-.6.5-1 1-1h3c.2-1.1 1.3-2 2.5-2s2.3.9 2.5 2M8 4h3c-.2-.6-.9-1-1.5-1S8.2 3.4 8 4M4 7h11l-.9 10.1c0 .5-.5.9-1 .9H5.9c-.5 0-.9-.4-1-.9z" />
    </symbol>
</svg>