<svg width="0" height="0" class="hidden">
    <symbol xmlns="http://www.w3.org/2000/svg" viewBox="0 0 448 512" id="add">
        <path fill="currentColor"
            d="M256 64c0-17.7-14.3-32-32-32s-32 14.3-32 32v160H32c-17.7 0-32 14.3-32 32s14.3 32 32 32h160v160c0 17.7 14.3 32 32 32s32-14.3 32-32V288h160c17.7 0 32-14.3 32-32s-14.3-32-32-32H256z">
        </path>
    </symbol>
    <symbol xmlns="http://www.w3.org/2000/svg" viewBox="0 0 15 15" id="delete">
        <path fill="#000000"
            d="M3.64 2.27L7.5 6.13l3.84-3.84A.92.92 0 0 1 12 2a1 1 0 0 1 1 1a.9.9 0 0 1-.27.66L8.84 7.5l3.89 3.89A.9.9 0 0 1 13 12a1 1 0 0 1-1 1a.92.92 0 0 1-.69-.27L7.5 8.87l-3.85 3.85A.92.92 0 0 1 3 13a1 1 0 0 1-1-1a.9.9 0 0 1 .27-.66L6.16 7.5L2.27 3.61A.9.9 0 0 1 2 3a1 1 0 0 1 1-1c.24.003.47.1.64.27" />
    </symbol>
    <symbol xmlns="http://www.w3.org/2000/svg" viewBox="0 0 24 24" id="export">
        <path fill="#000000"
            d="M8.71 7.71L11 5.41V15a1 1 0 0 0 2 0V5.41l2.29 2.3a1 1 0 0 0 1.42 0a1 1 0 0 0 0-1.42l-4-4a1 1 0 0 0-.33-.21a1 1 0 0 0-.76 0a1 1 0 0 0-.33.21l-4 4a1 1 0 1 0 1.42 1.42M21 14a1 1 0 0 0-1 1v4a1 1 0 0 1-1 1H5a1 1 0 0 1-1-1v-4a1 1 0 0 0-2 0v4a3 3 0 0 0 3 3h14a3 3 0 0 0 3-3v-4a1 1 0 0 0-1-1" />
    </symbol>
    <symbol xmlns="http://www.w3.org/2000/svg" viewBox="0 0 26 26" id="deleteAll">
        <path fill="#000000"
            d="M11.5-.031c-1.958 0-3.531 1.627-3.531 3.594V4H4c-.551 0-1 .449-1 1v1H2v2h2v15c0 1.645 1.355 3 3 3h12c1.645 0 3-1.355 3-3V8h2V6h-1V5c0-.551-.449-1-1-1h-3.969v-.438c0-1.966-1.573-3.593-3.531-3.593zm0 2.062h3c.804 0 1.469.656 1.469 1.531V4H10.03v-.438c0-.875.665-1.53 1.469-1.53zM6 8h5.125c.124.013.247.031.375.031h3c.128 0 .25-.018.375-.031H20v15c0 .563-.437 1-1 1H7c-.563 0-1-.437-1-1zm2 2v12h2V10zm4 0v12h2V10zm4 0v12h2V10z" />
    </symbol>
</svg>